<svg width="40" height="40" viewBox="0 0 40 40" fill="none" xmlns="http://www.w3.org/2000/svg">
    <rect width="40" height="40" rx="20" fill="#0055FF" />
    <path d="M28.4602 17.392C28.5339 18.5657 28.3612 19.7419 27.953 20.8447C27.5325 21.9979 26.8473 23.0358 26.0072 23.9308L19.9649 30.3663L13.9224 23.9308C13.0823 23.0358 12.397 21.9979 11.9766 20.8447C11.5684 19.7419 11.3956 18.5657 11.4696 17.392C11.7585 13.064 15.2148 9.23096 19.9649 9.23096C24.7148 9.23096 28.171 13.064 28.4602 17.392Z" fill="white" />
    <path d="M28.4602 17.392C28.5339 18.5657 28.3612 19.7419 27.953 20.8447C27.5325 21.9979 26.8473 23.0358 26.0072 23.9308L19.9649 30.3663L13.9224 23.9308C13.0823 23.0358 12.397 21.9979 11.9766 20.8447C11.5684 19.7419 11.3956 18.5657 11.4696 17.392C11.7585 13.064 15.2148 9.23096 19.9649 9.23096C24.7148 9.23096 28.171 13.064 28.4602 17.392Z" stroke="white" />
    <g clip-path="url(#clip0)">
        <path d="M14.3554 19.8913L15.1502 19.945H15.5489C16.4246 19.9441 17.1342 19.2319 17.1351 18.3529V18.0428L17.8679 18.1866C18.135 18.2412 18.3272 18.4766 18.3286 18.7503C18.3295 19.6293 19.0391 20.3416 19.9148 20.3425C20.7826 20.3224 21.481 19.6214 21.501 18.7503C21.5052 18.478 21.6959 18.244 21.9616 18.1866L22.6945 18.0428V18.3529C22.6954 19.2319 23.405 19.9441 24.2806 19.945L24.6682 19.9338L25.4741 19.8857C26.1637 19.6928 26.6467 19.0707 26.6644 18.3529L26.6671 15.9602C26.6634 15.2353 26.173 14.6043 25.4741 14.4241L24.6794 14.3647C24.1629 14.3647 23.666 14.3283 23.1607 14.8355C22.9648 15.0359 22.8257 15.2848 22.7563 15.5571H17.0849C16.9039 14.8551 16.2738 14.3643 15.5517 14.3619L15.1557 14.3591L14.3554 14.4241C13.6566 14.6043 13.1661 15.2353 13.1624 15.9597L13.1652 18.3524C13.1675 19.0773 13.6566 19.7096 14.3554 19.8913ZM23.4887 15.9597C23.4887 15.7481 23.5725 15.5454 23.7214 15.3955C23.8703 15.2461 24.0727 15.162 24.2834 15.162H25.0754C25.2862 15.162 25.4881 15.2461 25.6374 15.3955C25.7863 15.545 25.8701 15.7481 25.8701 15.9597V18.3496C25.8701 18.5612 25.7863 18.7639 25.6374 18.9138C25.4886 19.0633 25.2862 19.1473 25.0754 19.1473H24.2834C24.0727 19.1473 23.8707 19.0633 23.7214 18.9138C23.5725 18.7643 23.4887 18.5612 23.4887 18.3496C23.4883 17.989 23.4883 17.7275 23.4878 17.5416C23.4883 17.6313 23.4887 17.3931 23.4887 15.9597ZM22.694 16.3572V17.2249L21.8067 17.4052C21.1725 17.5355 20.7165 18.0941 20.7146 18.7438C20.716 19.067 20.5229 19.3589 20.2256 19.4831C19.9283 19.6074 19.5858 19.5392 19.3588 19.3103C19.2047 19.1623 19.1168 18.9582 19.1145 18.7438C19.1121 18.0941 18.6562 17.5355 18.0224 17.4052L17.1351 17.2249V16.3572H22.694ZM13.9599 18.3496V15.9597C13.9599 15.7481 14.0437 15.5454 14.1926 15.3955C14.3415 15.2456 14.5439 15.162 14.7547 15.162H15.5466C15.7574 15.162 15.9593 15.2461 16.1087 15.3955C16.2576 15.545 16.3413 15.7481 16.3413 15.9597V18.3496C16.3413 18.5612 16.2576 18.7639 16.1087 18.9138C15.9598 19.0637 15.7574 19.1473 15.5466 19.1473H14.7547C14.5439 19.1473 14.3419 19.0633 14.1926 18.9138C14.0432 18.7643 13.9595 18.5612 13.9599 18.3496Z" fill="#0055FF" />
        <path d="M20.3136 17.9521L20.3108 17.5547C20.334 17.4005 20.2652 17.2469 20.1349 17.1619C20.0046 17.0769 19.8371 17.0755 19.7059 17.1586C19.5747 17.2417 19.504 17.3945 19.5244 17.5491L19.5216 17.9465C19.5216 18.1674 19.7003 18.3468 19.9204 18.3468C20.1405 18.3468 20.3192 18.1674 20.3192 17.9465L20.3136 17.9521Z" fill="#0055FF" />
    </g>
    <defs>
        <clipPath id="clip0">
            <rect width="13.5043" height="5.9829" fill="white" transform="translate(13.1624 14.3591)" />
        </clipPath>
    </defs>
</svg>
    